# xmcd CD database file
#
# Track frame offsets:
#	182
#	18060
#	36335
#	50030
#	66627
#	77512
#	96637
#	116645
#	133725
#
# Disc length: 2116 seconds
#
# Revision: 4
# Processed by: cddbd v1.5.2PL0 Copyright (c) Steve Scherf et al.
# Submitted via: CDex 1.51
#
DISCID=80084209
DTITLE=Jean-Pierre Boyer - Look'Ali  (Séga-Bossa-Slow)
DYEAR=1991
DGENRE=Ambiance
TTITLE0=Avec Toi
TTITLE1=L'Exile 
TTITLE2=La Foire Bras-Panon
TTITLE3=Pile Sega 
TTITLE4=A Coze Toue Le Jaloux
TTITLE5=Par Amour
TTITLE6=Gramoune
TTITLE7=Enleve Ton Malole
TTITLE8=Look A Li...Séga
EXTD=YEAR: 1991
EXTT0=
EXTT1=
EXTT2=
EXTT3=
EXTT4=
EXTT5=
EXTT6=
EXTT7=
EXTT8=
PLAYORDER=
